<?xml version="1.0" encoding="iso-8859-1"?>
<!-- Generator: Adobe Illustrator 21.0.0, SVG Export Plug-In . SVG Version: 6.00 Build 0)  -->
<svg version="1.1" id="Capa_1" xmlns="http://www.w3.org/2000/svg" xmlns:xlink="http://www.w3.org/1999/xlink" x="0px" y="0px"
	 viewBox="0 0 511.999 511.999" style="enable-background:new 0 0 511.999 511.999;" xml:space="preserve">
<rect x="141.921" y="236.6" transform="matrix(0.7071 -0.7071 0.7071 0.7071 -172.985 283.7258)" style="fill:#A6E2E3;" width="228.148" height="228.148"/>
<rect x="141.926" y="141.675" transform="matrix(0.7071 -0.7071 0.7071 0.7071 -105.8614 255.9265)" style="fill:#FFD5A1;" width="228.148" height="228.148"/>
<rect x="175.489" y="222.704" transform="matrix(0.7071 -0.7071 0.7071 0.7071 -139.4242 269.8272)" style="fill:#A8A6A6;" width="161.018" height="161.018"/>
<rect x="141.93" y="47.251" transform="matrix(0.7071 -0.7071 0.7071 0.7071 -39.092 228.2733)" style="fill:#FFD5A1;" width="228.148" height="228.148"/>
<rect x="175.296" y="127.84" transform="matrix(0.7071 -0.7071 0.7071 0.7071 -72.4785 242.0906)" style="fill:#FFA638;" width="161.388" height="161.388"/>
<rect x="208.866" y="208.876" transform="matrix(0.7071 -0.7071 0.7071 0.7071 -106.0438 255.9988)" style="fill:#808080;" width="94.259" height="94.259"/>
<g>
</g>
<g>
</g>
<g>
</g>
<g>
</g>
<g>
</g>
<g>
</g>
<g>
</g>
<g>
</g>
<g>
</g>
<g>
</g>
<g>
</g>
<g>
</g>
<g>
</g>
<g>
</g>
<g>
</g>
</svg>
